<svg height="35" viewBox="0 0 512 512" width="35" xmlns="http://www.w3.org/2000/svg" id="fi_1384853"><path d="m199.738281 512h-162.238281c-20.679688 0-37.5-16.820312-37.5-37.5v-437c0-20.679688 16.820312-37.5 37.5-37.5h437c20.679688 0 37.5 16.820312 37.5 37.5v250.273438c0 4.140624-3.355469 7.5-7.5 7.5s-7.5-3.359376-7.5-7.5v-250.273438c0-12.40625-10.09375-22.5-22.5-22.5h-437c-12.40625 0-22.5 10.09375-22.5 22.5v437c0 12.40625 10.09375 22.5 22.5 22.5h162.238281c4.144531 0 7.5 3.359375 7.5 7.5s-3.355469 7.5-7.5 7.5zm0 0"></path><path d="m474.5 512h-240.238281c-4.144531 0-7.5-3.359375-7.5-7.5s3.355469-7.5 7.5-7.5h240.238281c12.40625 0 22.5-10.09375 22.5-22.5v-152.203125c0-4.144531 3.355469-7.5 7.5-7.5s7.5 3.355469 7.5 7.5v152.203125c0 20.679688-16.820312 37.5-37.5 37.5zm0 0"></path><path d="m256.03125 449.375c-34.070312 0-67.410156-8.925781-96.734375-25.894531l-56.183594 10.226562c-5.949219 1.082031-12.0625-.828125-16.34375-5.105469-4.28125-4.28125-6.1875-10.390624-5.105469-16.34375l9.902344-54.445312c-19.394531-31.253906-29.394531-67.242188-28.933594-104.269531.628907-50.628907 21.390626-98.550781 58.457032-134.9375 36.800781-36.128907 84.683594-55.988281 134.933594-55.988281.355468 0 .703124.003906 1.058593.003906 39.082031.210937 76.683594 12.027344 108.734375 34.183594 31.300782 21.636718 55.351563 51.65625 69.546875 86.8125 1.550781 3.84375-.308593 8.210937-4.148437 9.761718-3.839844 1.554688-8.210938-.304687-9.761719-4.144531-13.09375-32.433594-35.28125-60.128906-64.167969-80.09375-29.554687-20.425781-64.230468-31.328125-100.285156-31.519531-.320312-.003906-.652344-.003906-.972656-.003906-46.300782 0-90.449219 18.332031-124.429688 51.691406-34.222656 33.59375-53.386718 77.78125-53.964844 124.417968-.4375 35.085938 9.296876 69.144532 28.148438 98.5 1.027344 1.597657 1.40625 3.527344 1.066406 5.398438l-10.425781 57.316406c-.28125 1.542969.476563 2.574219.953125 3.050782.480469.480468 1.515625 1.242187 3.050781.957031l58.929688-10.722657c1.785156-.324218 3.632812.007813 5.191406.941407 28.085937 16.808593 60.292969 25.539062 93.261719 25.199219 26.664062-.265626 52.199218-6.191407 75.902344-17.609376 9.847656-4.734374 19.332031-10.441406 28.195312-16.957031 22.15625-16.308593 40.480469-37.863281 52.988281-62.332031 13.097657-25.625 19.652344-53.398438 19.480469-82.539062-.066406-11.015626-1.160156-22.089844-3.253906-32.921876-.785156-4.066406 1.875-8 5.941406-8.785156 4.074219-.789062 8 1.875 8.789062 5.941406 2.265626 11.734376 3.449219 23.738282 3.523438 35.675782.179688 31.128906-7.125 62.058594-21.125 89.457031-13.5625 26.53125-33.429688 49.90625-57.457031 67.585937-9.613281 7.070313-19.898438 13.257813-30.578125 18.394532-25.699219 12.375-53.375 18.800781-82.261719 19.089844-.636719.003906-1.28125.007812-1.921875.007812zm0 0"></path><path d="m279.980469 326.839844c-4.019531 0-7.796875-1.5625-10.640625-4.398438l-50.019532-49.871094-63.0625 23.648438c-6.789062 2.546875-13.996093.167969-17.9375-5.917969-3.941406-6.085937-3.164062-13.636719 1.9375-18.789062l81.050782-81.882813c2.839844-2.867187 6.625-4.453125 10.660156-4.46875h.050781c4.015625 0 7.792969 1.5625 10.640625 4.402344l50.019532 49.867188 63.0625-23.648438c6.785156-2.542969 13.996093-.167969 17.9375 5.917969 3.941406 6.085937 3.160156 13.640625-1.941407 18.792969l-81.050781 81.878906c-2.839844 2.871094-6.625 4.457031-10.660156 4.46875-.015625 0-.03125 0-.046875 0zm-58.78125-70.484375c1.949219 0 3.867187.761719 5.296875 2.1875l53.4375 53.277343 81.144531-81.882812c.015625-.015625.027344-.027344.039063-.039062-.019532-.03125-.039063-.0625-.058594-.089844-.015625.003906-.03125.011718-.050782.015625l-67.574218 25.34375c-2.75 1.03125-5.851563.359375-7.929688-1.710938l-53.4375-53.277343-81.148437 81.882812c-.011719.015625-.023438.027344-.035157.039062.015626.03125.039063.0625.058594.089844.015625-.003906.03125-.011718.050782-.015625l67.574218-25.34375c.859375-.320312 1.75-.476562 2.632813-.476562zm137.175781-33.550781h.011719zm0 0"></path></svg>